# xmcd
#
# Track frame offsets: 
#        150
#        24675
#        39531
#        78589
#        109504
#        123772
#        151271
#        181577
#        206194
#        232703
#        252143
#        268347
#        287836
#        314255
#
# Disc length: 4536 seconds
#
# Revision: 0
# Processed by: cddbd v1.5.2PL0 Copyright (c) Steve Scherf et al.
# Submitted via: ExactAudioCopy v0.99pb5
#
DISCID=b511b60e
DTITLE=Seasick Steve - In Concert - Fairport's Cropredy Convention 201
DTITLE=1
DYEAR=2011
DGENRE=Blues
TTITLE0=Fallin' Off A Rock
TTITLE1=My Donny
TTITLE2=Thunderbird
TTITLE3=Walkin' Man
TTITLE4=Prospect Lane
TTITLE5=Bunin' Up
TTITLE6=Never Go West
TTITLE7=I'm So Lonesome I Could Cry
TTITLE8=What A Way To Go
TTITLE9=Back In The Doghouse
TTITLE10=Don't Know Why She Loves Me
TTITLE11=You Can't Teach An Old Dog New Tricks
TTITLE12=It's A Long Way
TTITLE13=Dog House Boogie
EXTD=
EXTT0=
EXTT1=
EXTT2=
EXTT3=
EXTT4=
EXTT5=
EXTT6=
EXTT7=
EXTT8=
EXTT9=
EXTT10=
EXTT11=
EXTT12=
EXTT13=
PLAYORDER=
